<svg xmlns="http://www.w3.org/2000/svg" width="900" height="360" viewBox="0 0 900 360"><rect width="100%" height="100%" fill="white"/><text x="30" y="28" font-family="sans-serif" font-size="18">model order comparison</text><line x1="30" y1="190" x2="880" y2="190" stroke="#888"/><rect x="35.00" y="190.00" width="12.62" height="140.00" fill="#3976af" opacity=".75"/><rect x="48.12" y="190.00" width="12.62" height="139.67" fill="#3976af" opacity=".75"/><rect x="61.25" y="190.00" width="12.62" height="133.34" fill="#3976af" opacity=".75"/><rect x="74.38" y="190.00" width="12.62" height="131.62" fill="#3976af" opacity=".75"/><rect x="87.50" y="190.00" width="12.62" height="126.21" fill="#3976af" opacity=".75"/><rect x="100.62" y="190.00" width="12.62" height="124.14" fill="#3976af" opacity=".75"/><rect x="113.75" y="190.00" width="12.62" height="120.93" fill="#3976af" opacity=".75"/><rect x="126.88" y="190.00" width="12.62" height="118.58" fill="#3976af" opacity=".75"/><rect x="140.00" y="190.00" width="12.62" height="118.05" fill="#3976af" opacity=".75"/><rect x="153.12" y="190.00" width="12.62" height="116.69" fill="#3976af" opacity=".75"/><rect x="166.25" y="190.00" width="12.62" height="113.62" fill="#3976af" opacity=".75"/><rect x="179.38" y="190.00" width="12.62" height="112.87" fill="#3976af" opacity=".75"/><rect x="192.50" y="190.00" width="12.62" height="112.48" fill="#3976af" opacity=".75"/><rect x="205.62" y="190.00" width="12.62" height="111.69" fill="#3976af" opacity=".75"/><rect x="218.75" y="190.00" width="12.62" height="110.97" fill="#3976af" opacity=".75"/><rect x="231.88" y="190.00" width="12.62" height="105.67" fill="#3976af" opacity=".75"/><rect x="245.00" y="190.00" width="12.62" height="104.90" fill="#3976af" opacity=".75"/><rect x="258.12" y="190.00" width="12.62" height="103.77" fill="#3976af" opacity=".75"/><rect x="271.25" y="190.00" width="12.62" height="103.73" fill="#3976af" opacity=".75"/><rect x="284.38" y="190.00" width="12.62" height="103.67" fill="#3976af" opacity=".75"/><rect x="297.50" y="190.00" width="12.62" height="103.00" fill="#3976af" opacity=".75"/><rect x="310.62" y="190.00" width="12.62" height="98.66" fill="#3976af" opacity=".75"/><rect x="323.75" y="190.00" width="12.62" height="96.32" fill="#3976af" opacity=".75"/><rect x="336.88" y="190.00" width="12.62" height="95.67" fill="#3976af" opacity=".75"/><rect x="350.00" y="190.00" width="12.62" height="94.12" fill="#3976af" opacity=".75"/><rect x="363.12" y="190.00" width="12.62" height="93.57" fill="#3976af" opacity=".75"/><rect x="376.25" y="190.00" width="12.62" height="93.10" fill="#3976af" opacity=".75"/><rect x="389.38" y="190.00" width="12.62" height="92.38" fill="#3976af" opacity=".75"/><rect x="402.50" y="190.00" width="12.62" height="92.28" fill="#3976af" opacity=".75"/><rect x="415.62" y="190.00" width="12.62" height="91.09" fill="#3976af" opacity=".75"/><rect x="428.75" y="190.00" width="12.62" height="90.87" fill="#3976af" opacity=".75"/><rect x="441.88" y="190.00" width="12.62" height="90.36" fill="#3976af" opacity=".75"/><rect x="455.00" y="190.00" width="12.62" height="90.33" fill="#3976af" opacity=".75"/><rect x="468.12" y="190.00" width="12.62" height="90.33" fill="#3976af" opacity=".75"/><rect x="481.25" y="190.00" width="12.62" height="89.91" fill="#3976af" opacity=".75"/><rect x="494.38" y="190.00" width="12.62" height="89.69" fill="#3976af" opacity=".75"/><rect x="507.50" y="190.00" width="12.62" height="88.90" fill="#3976af" opacity=".75"/><rect x="520.62" y="190.00" width="12.62" height="87.96" fill="#3976af" opacity=".75"/><rect x="533.75" y="190.00" width="12.62" height="87.78" fill="#3976af" opacity=".75"/><rect x="546.88" y="190.00" width="12.62" height="85.86" fill="#3976af" opacity=".75"/><rect x="560.00" y="190.00" width="12.62" height="84.34" fill="#3976af" opacity=".75"/><rect x="573.12" y="190.00" width="12.62" height="84.32" fill="#3976af" opacity=".75"/><rect x="586.25" y="190.00" width="12.62" height="84.27" fill="#3976af" opacity=".75"/><rect x="599.38" y="190.00" width="12.62" height="84.09" fill="#3976af" opacity=".75"/><rect x="612.50" y="190.00" width="12.62" height="84.03" fill="#3976af" opacity=".75"/><rect x="625.62" y="190.00" width="12.62" height="83.44" fill="#3976af" opacity=".75"/><rect x="638.75" y="190.00" width="12.62" height="83.26" fill="#3976af" opacity=".75"/><rect x="651.88" y="190.00" width="12.62" height="83.01" fill="#3976af" opacity=".75"/><rect x="665.00" y="190.00" width="12.62" height="80.60" fill="#3976af" opacity=".75"/><rect x="678.12" y="190.00" width="12.62" height="80.20" fill="#3976af" opacity=".75"/><rect x="691.25" y="190.00" width="12.62" height="79.97" fill="#3976af" opacity=".75"/><rect x="704.38" y="190.00" width="12.62" height="78.89" fill="#3976af" opacity=".75"/><rect x="717.50" y="190.00" width="12.62" height="78.86" fill="#3976af" opacity=".75"/><rect x="730.62" y="190.00" width="12.62" height="77.21" fill="#3976af" opacity=".75"/><rect x="743.75" y="190.00" width="12.62" height="77.02" fill="#3976af" opacity=".75"/><rect x="756.88" y="190.00" width="12.62" height="71.98" fill="#3976af" opacity=".75"/><rect x="770.00" y="190.00" width="12.62" height="71.40" fill="#3976af" opacity=".75"/><rect x="783.12" y="190.00" width="12.62" height="70.94" fill="#3976af" opacity=".75"/><rect x="796.25" y="190.00" width="12.62" height="69.47" fill="#3976af" opacity=".75"/><rect x="809.38" y="190.00" width="12.62" height="69.21" fill="#3976af" opacity=".75"/><rect x="822.50" y="190.00" width="12.62" height="67.60" fill="#3976af" opacity=".75"/><rect x="835.62" y="190.00" width="12.62" height="66.36" fill="#3976af" opacity=".75"/><rect x="848.75" y="190.00" width="12.62" height="65.20" fill="#3976af" opacity=".75"/><rect x="861.88" y="190.00" width="12.62" height="57.53" fill="#3976af" opacity=".75"/></svg>