<svg xmlns="http://www.w3.org/2000/svg" width="900" height="360" viewBox="0 0 900 360"><rect width="100%" height="100%" fill="white"/><text x="30" y="28" font-family="sans-serif" font-size="18">profile stability distribution</text><line x1="30" y1="190" x2="880" y2="190" stroke="#888"/><rect x="35.00" y="86.68" width="10.00" height="103.32" fill="#3976af" opacity=".75"/><rect x="45.50" y="84.29" width="10.00" height="105.71" fill="#3976af" opacity=".75"/><rect x="56.00" y="84.22" width="10.00" height="105.78" fill="#3976af" opacity=".75"/><rect x="66.50" y="84.15" width="10.00" height="105.85" fill="#3976af" opacity=".75"/><rect x="77.00" y="83.63" width="10.00" height="106.37" fill="#3976af" opacity=".75"/><rect x="87.50" y="82.82" width="10.00" height="107.18" fill="#3976af" opacity=".75"/><rect x="98.00" y="82.14" width="10.00" height="107.86" fill="#3976af" opacity=".75"/><rect x="108.50" y="81.84" width="10.00" height="108.16" fill="#3976af" opacity=".75"/><rect x="119.00" y="81.11" width="10.00" height="108.89" fill="#3976af" opacity=".75"/><rect x="129.50" y="78.52" width="10.00" height="111.48" fill="#3976af" opacity=".75"/><rect x="140.00" y="78.28" width="10.00" height="111.72" fill="#3976af" opacity=".75"/><rect x="150.50" y="77.56" width="10.00" height="112.44" fill="#3976af" opacity=".75"/><rect x="161.00" y="76.53" width="10.00" height="113.47" fill="#3976af" opacity=".75"/><rect x="171.50" y="76.22" width="10.00" height="113.78" fill="#3976af" opacity=".75"/><rect x="182.00" y="75.42" width="10.00" height="114.58" fill="#3976af" opacity=".75"/><rect x="192.50" y="74.77" width="10.00" height="115.23" fill="#3976af" opacity=".75"/><rect x="203.00" y="72.76" width="10.00" height="117.24" fill="#3976af" opacity=".75"/><rect x="213.50" y="72.54" width="10.00" height="117.46" fill="#3976af" opacity=".75"/><rect x="224.00" y="71.54" width="10.00" height="118.46" fill="#3976af" opacity=".75"/><rect x="234.50" y="71.28" width="10.00" height="118.72" fill="#3976af" opacity=".75"/><rect x="245.00" y="70.75" width="10.00" height="119.25" fill="#3976af" opacity=".75"/><rect x="255.50" y="70.12" width="10.00" height="119.88" fill="#3976af" opacity=".75"/><rect x="266.00" y="69.83" width="10.00" height="120.17" fill="#3976af" opacity=".75"/><rect x="276.50" y="69.47" width="10.00" height="120.53" fill="#3976af" opacity=".75"/><rect x="287.00" y="68.42" width="10.00" height="121.58" fill="#3976af" opacity=".75"/><rect x="297.50" y="68.29" width="10.00" height="121.71" fill="#3976af" opacity=".75"/><rect x="308.00" y="67.96" width="10.00" height="122.04" fill="#3976af" opacity=".75"/><rect x="318.50" y="67.72" width="10.00" height="122.28" fill="#3976af" opacity=".75"/><rect x="329.00" y="67.43" width="10.00" height="122.57" fill="#3976af" opacity=".75"/><rect x="339.50" y="66.89" width="10.00" height="123.11" fill="#3976af" opacity=".75"/><rect x="350.00" y="64.36" width="10.00" height="125.64" fill="#3976af" opacity=".75"/><rect x="360.50" y="64.22" width="10.00" height="125.78" fill="#3976af" opacity=".75"/><rect x="371.00" y="64.05" width="10.00" height="125.95" fill="#3976af" opacity=".75"/><rect x="381.50" y="63.99" width="10.00" height="126.01" fill="#3976af" opacity=".75"/><rect x="392.00" y="63.88" width="10.00" height="126.12" fill="#3976af" opacity=".75"/><rect x="402.50" y="63.59" width="10.00" height="126.41" fill="#3976af" opacity=".75"/><rect x="413.00" y="62.61" width="10.00" height="127.39" fill="#3976af" opacity=".75"/><rect x="423.50" y="62.57" width="10.00" height="127.43" fill="#3976af" opacity=".75"/><rect x="434.00" y="61.97" width="10.00" height="128.03" fill="#3976af" opacity=".75"/><rect x="444.50" y="61.88" width="10.00" height="128.12" fill="#3976af" opacity=".75"/><rect x="455.00" y="61.34" width="10.00" height="128.66" fill="#3976af" opacity=".75"/><rect x="465.50" y="60.97" width="10.00" height="129.03" fill="#3976af" opacity=".75"/><rect x="476.00" y="60.77" width="10.00" height="129.23" fill="#3976af" opacity=".75"/><rect x="486.50" y="60.41" width="10.00" height="129.59" fill="#3976af" opacity=".75"/><rect x="497.00" y="60.39" width="10.00" height="129.61" fill="#3976af" opacity=".75"/><rect x="507.50" y="60.37" width="10.00" height="129.63" fill="#3976af" opacity=".75"/><rect x="518.00" y="59.27" width="10.00" height="130.73" fill="#3976af" opacity=".75"/><rect x="528.50" y="58.76" width="10.00" height="131.24" fill="#3976af" opacity=".75"/><rect x="539.00" y="58.01" width="10.00" height="131.99" fill="#3976af" opacity=".75"/><rect x="549.50" y="57.81" width="10.00" height="132.19" fill="#3976af" opacity=".75"/><rect x="560.00" y="57.76" width="10.00" height="132.24" fill="#3976af" opacity=".75"/><rect x="570.50" y="57.34" width="10.00" height="132.66" fill="#3976af" opacity=".75"/><rect x="581.00" y="56.99" width="10.00" height="133.01" fill="#3976af" opacity=".75"/><rect x="591.50" y="56.43" width="10.00" height="133.57" fill="#3976af" opacity=".75"/><rect x="602.00" y="56.41" width="10.00" height="133.59" fill="#3976af" opacity=".75"/><rect x="612.50" y="56.03" width="10.00" height="133.97" fill="#3976af" opacity=".75"/><rect x="623.00" y="55.94" width="10.00" height="134.06" fill="#3976af" opacity=".75"/><rect x="633.50" y="55.91" width="10.00" height="134.09" fill="#3976af" opacity=".75"/><rect x="644.00" y="55.74" width="10.00" height="134.26" fill="#3976af" opacity=".75"/><rect x="654.50" y="55.73" width="10.00" height="134.27" fill="#3976af" opacity=".75"/><rect x="665.00" y="55.71" width="10.00" height="134.29" fill="#3976af" opacity=".75"/><rect x="675.50" y="55.62" width="10.00" height="134.38" fill="#3976af" opacity=".75"/><rect x="686.00" y="55.47" width="10.00" height="134.53" fill="#3976af" opacity=".75"/><rect x="696.50" y="55.40" width="10.00" height="134.60" fill="#3976af" opacity=".75"/><rect x="707.00" y="55.17" width="10.00" height="134.83" fill="#3976af" opacity=".75"/><rect x="717.50" y="55.02" width="10.00" height="134.98" fill="#3976af" opacity=".75"/><rect x="728.00" y="54.90" width="10.00" height="135.10" fill="#3976af" opacity=".75"/><rect x="738.50" y="54.44" width="10.00" height="135.56" fill="#3976af" opacity=".75"/><rect x="749.00" y="54.19" width="10.00" height="135.81" fill="#3976af" opacity=".75"/><rect x="759.50" y="54.18" width="10.00" height="135.82" fill="#3976af" opacity=".75"/><rect x="770.00" y="53.56" width="10.00" height="136.44" fill="#3976af" opacity=".75"/><rect x="780.50" y="53.52" width="10.00" height="136.48" fill="#3976af" opacity=".75"/><rect x="791.00" y="53.30" width="10.00" height="136.70" fill="#3976af" opacity=".75"/><rect x="801.50" y="53.22" width="10.00" height="136.78" fill="#3976af" opacity=".75"/><rect x="812.00" y="52.44" width="10.00" height="137.56" fill="#3976af" opacity=".75"/><rect x="822.50" y="52.13" width="10.00" height="137.87" fill="#3976af" opacity=".75"/><rect x="833.00" y="52.06" width="10.00" height="137.94" fill="#3976af" opacity=".75"/><rect x="843.50" y="51.98" width="10.00" height="138.02" fill="#3976af" opacity=".75"/><rect x="854.00" y="51.81" width="10.00" height="138.19" fill="#3976af" opacity=".75"/><rect x="864.50" y="50.00" width="10.00" height="140.00" fill="#3976af" opacity=".75"/></svg>