<svg xmlns="http://www.w3.org/2000/svg" width="900" height="500" viewBox="0 0 900 500"><rect width="100%" height="100%" fill="white"/><text x="30" y="30" font-family="sans-serif" font-size="18">directional_cross_block_consistency.svg</text><text x="30" y="52" font-family="sans-serif" font-size="12">sign consistency; top 30 frozen relations</text><line x1="50" y1="450" x2="870" y2="450" stroke="#333"/><rect x="55" y="70" width="25" height="380" fill="#4378bf"><title>directional:x001069:x028393: 1.0000 sign consistency</title></rect><rect x="81" y="70" width="25" height="380" fill="#4378bf"><title>directional:x019046:x028396: 1.0000 sign consistency</title></rect><rect x="107" y="70" width="25" height="380" fill="#4378bf"><title>directional:x019047:x028397: 1.0000 sign consistency</title></rect><rect x="133" y="70" width="25" height="380" fill="#4378bf"><title>directional:x019048:x028392: 1.0000 sign consistency</title></rect><rect x="159" y="70" width="25" height="380" fill="#4378bf"><title>directional:x019048:x028394: 1.0000 sign consistency</title></rect><rect x="185" y="70" width="25" height="380" fill="#4378bf"><title>directional:x028397:x028393: 1.0000 sign consistency</title></rect><rect x="211" y="450" width="25" height="0" fill="#4378bf"><title>directional:x015013:x030838: 0.0000 sign consistency</title></rect><rect x="237" y="450" width="25" height="0" fill="#4378bf"><title>directional:x031242:x031583: 0.0000 sign consistency</title></rect><rect x="263" y="450" width="25" height="0" fill="#4378bf"><title>directional:x000079:x028395: 0.0000 sign consistency</title></rect><rect x="289" y="450" width="25" height="0" fill="#4378bf"><title>directional:x000079:x028397: 0.0000 sign consistency</title></rect><rect x="315" y="450" width="25" height="0" fill="#4378bf"><title>directional:x000080:x000081: 0.0000 sign consistency</title></rect><rect x="341" y="450" width="25" height="0" fill="#4378bf"><title>directional:x000080:x001068: 0.0000 sign consistency</title></rect><rect x="367" y="450" width="25" height="0" fill="#4378bf"><title>directional:x000080:x001071: 0.0000 sign consistency</title></rect><rect x="393" y="450" width="25" height="0" fill="#4378bf"><title>directional:x000080:x014155: 0.0000 sign consistency</title></rect><rect x="419" y="450" width="25" height="0" fill="#4378bf"><title>directional:x000080:x015013: 0.0000 sign consistency</title></rect><rect x="445" y="450" width="25" height="0" fill="#4378bf"><title>directional:x000080:x019044: 0.0000 sign consistency</title></rect><rect x="471" y="450" width="25" height="0" fill="#4378bf"><title>directional:x000080:x019048: 0.0000 sign consistency</title></rect><rect x="497" y="450" width="25" height="0" fill="#4378bf"><title>directional:x000080:x028393: 0.0000 sign consistency</title></rect><rect x="523" y="450" width="25" height="0" fill="#4378bf"><title>directional:x000080:x028904: 0.0000 sign consistency</title></rect><rect x="549" y="450" width="25" height="0" fill="#4378bf"><title>directional:x000081:x000082: 0.0000 sign consistency</title></rect><rect x="575" y="450" width="25" height="0" fill="#4378bf"><title>directional:x000081:x001070: 0.0000 sign consistency</title></rect><rect x="601" y="450" width="25" height="0" fill="#4378bf"><title>directional:x000081:x001753: 0.0000 sign consistency</title></rect><rect x="627" y="450" width="25" height="0" fill="#4378bf"><title>directional:x000081:x012677: 0.0000 sign consistency</title></rect><rect x="653" y="450" width="25" height="0" fill="#4378bf"><title>directional:x000081:x019044: 0.0000 sign consistency</title></rect><rect x="679" y="450" width="25" height="0" fill="#4378bf"><title>directional:x000081:x019045: 0.0000 sign consistency</title></rect><rect x="705" y="450" width="25" height="0" fill="#4378bf"><title>directional:x000081:x019046: 0.0000 sign consistency</title></rect><rect x="731" y="450" width="25" height="0" fill="#4378bf"><title>directional:x000081:x019048: 0.0000 sign consistency</title></rect><rect x="757" y="450" width="25" height="0" fill="#4378bf"><title>directional:x000081:x028396: 0.0000 sign consistency</title></rect><rect x="783" y="450" width="25" height="0" fill="#4378bf"><title>directional:x000082:x019048: 0.0000 sign consistency</title></rect><rect x="809" y="450" width="25" height="0" fill="#4378bf"><title>directional:x000082:x028396: 0.0000 sign consistency</title></rect></svg>
