<svg xmlns="http://www.w3.org/2000/svg" width="900" height="360" viewBox="0 0 900 360"><rect width="100%" height="100%" fill="white"/><text x="30" y="28" font-family="sans-serif" font-size="18">outgoing entropy effect</text><line x1="30" y1="190" x2="880" y2="190" stroke="#888"/><rect x="35.00" y="72.96" width="10.00" height="117.04" fill="#3976af" opacity=".75"/><rect x="45.50" y="72.73" width="10.00" height="117.27" fill="#3976af" opacity=".75"/><rect x="56.00" y="72.73" width="10.00" height="117.27" fill="#3976af" opacity=".75"/><rect x="66.50" y="72.66" width="10.00" height="117.34" fill="#3976af" opacity=".75"/><rect x="77.00" y="71.97" width="10.00" height="118.03" fill="#3976af" opacity=".75"/><rect x="87.50" y="71.95" width="10.00" height="118.05" fill="#3976af" opacity=".75"/><rect x="98.00" y="71.58" width="10.00" height="118.42" fill="#3976af" opacity=".75"/><rect x="108.50" y="71.00" width="10.00" height="119.00" fill="#3976af" opacity=".75"/><rect x="119.00" y="70.97" width="10.00" height="119.03" fill="#3976af" opacity=".75"/><rect x="129.50" y="70.92" width="10.00" height="119.08" fill="#3976af" opacity=".75"/><rect x="140.00" y="70.67" width="10.00" height="119.33" fill="#3976af" opacity=".75"/><rect x="150.50" y="70.60" width="10.00" height="119.40" fill="#3976af" opacity=".75"/><rect x="161.00" y="70.57" width="10.00" height="119.43" fill="#3976af" opacity=".75"/><rect x="171.50" y="69.54" width="10.00" height="120.46" fill="#3976af" opacity=".75"/><rect x="182.00" y="69.50" width="10.00" height="120.50" fill="#3976af" opacity=".75"/><rect x="192.50" y="69.43" width="10.00" height="120.57" fill="#3976af" opacity=".75"/><rect x="203.00" y="69.09" width="10.00" height="120.91" fill="#3976af" opacity=".75"/><rect x="213.50" y="68.30" width="10.00" height="121.70" fill="#3976af" opacity=".75"/><rect x="224.00" y="68.13" width="10.00" height="121.87" fill="#3976af" opacity=".75"/><rect x="234.50" y="67.99" width="10.00" height="122.01" fill="#3976af" opacity=".75"/><rect x="245.00" y="67.95" width="10.00" height="122.05" fill="#3976af" opacity=".75"/><rect x="255.50" y="67.65" width="10.00" height="122.35" fill="#3976af" opacity=".75"/><rect x="266.00" y="67.62" width="10.00" height="122.38" fill="#3976af" opacity=".75"/><rect x="276.50" y="67.28" width="10.00" height="122.72" fill="#3976af" opacity=".75"/><rect x="287.00" y="67.18" width="10.00" height="122.82" fill="#3976af" opacity=".75"/><rect x="297.50" y="67.10" width="10.00" height="122.90" fill="#3976af" opacity=".75"/><rect x="308.00" y="66.98" width="10.00" height="123.02" fill="#3976af" opacity=".75"/><rect x="318.50" y="66.93" width="10.00" height="123.07" fill="#3976af" opacity=".75"/><rect x="329.00" y="66.74" width="10.00" height="123.26" fill="#3976af" opacity=".75"/><rect x="339.50" y="66.66" width="10.00" height="123.34" fill="#3976af" opacity=".75"/><rect x="350.00" y="66.52" width="10.00" height="123.48" fill="#3976af" opacity=".75"/><rect x="360.50" y="66.46" width="10.00" height="123.54" fill="#3976af" opacity=".75"/><rect x="371.00" y="66.32" width="10.00" height="123.68" fill="#3976af" opacity=".75"/><rect x="381.50" y="66.30" width="10.00" height="123.70" fill="#3976af" opacity=".75"/><rect x="392.00" y="66.30" width="10.00" height="123.70" fill="#3976af" opacity=".75"/><rect x="402.50" y="66.30" width="10.00" height="123.70" fill="#3976af" opacity=".75"/><rect x="413.00" y="66.14" width="10.00" height="123.86" fill="#3976af" opacity=".75"/><rect x="423.50" y="66.10" width="10.00" height="123.90" fill="#3976af" opacity=".75"/><rect x="434.00" y="65.38" width="10.00" height="124.62" fill="#3976af" opacity=".75"/><rect x="444.50" y="65.20" width="10.00" height="124.80" fill="#3976af" opacity=".75"/><rect x="455.00" y="65.00" width="10.00" height="125.00" fill="#3976af" opacity=".75"/><rect x="465.50" y="64.70" width="10.00" height="125.30" fill="#3976af" opacity=".75"/><rect x="476.00" y="64.65" width="10.00" height="125.35" fill="#3976af" opacity=".75"/><rect x="486.50" y="64.62" width="10.00" height="125.38" fill="#3976af" opacity=".75"/><rect x="497.00" y="63.92" width="10.00" height="126.08" fill="#3976af" opacity=".75"/><rect x="507.50" y="63.24" width="10.00" height="126.76" fill="#3976af" opacity=".75"/><rect x="518.00" y="63.23" width="10.00" height="126.77" fill="#3976af" opacity=".75"/><rect x="528.50" y="63.23" width="10.00" height="126.77" fill="#3976af" opacity=".75"/><rect x="539.00" y="62.55" width="10.00" height="127.45" fill="#3976af" opacity=".75"/><rect x="549.50" y="62.41" width="10.00" height="127.59" fill="#3976af" opacity=".75"/><rect x="560.00" y="60.76" width="10.00" height="129.24" fill="#3976af" opacity=".75"/><rect x="570.50" y="60.73" width="10.00" height="129.27" fill="#3976af" opacity=".75"/><rect x="581.00" y="59.44" width="10.00" height="130.56" fill="#3976af" opacity=".75"/><rect x="591.50" y="59.01" width="10.00" height="130.99" fill="#3976af" opacity=".75"/><rect x="602.00" y="58.22" width="10.00" height="131.78" fill="#3976af" opacity=".75"/><rect x="612.50" y="58.15" width="10.00" height="131.85" fill="#3976af" opacity=".75"/><rect x="623.00" y="58.06" width="10.00" height="131.94" fill="#3976af" opacity=".75"/><rect x="633.50" y="57.51" width="10.00" height="132.49" fill="#3976af" opacity=".75"/><rect x="644.00" y="57.11" width="10.00" height="132.89" fill="#3976af" opacity=".75"/><rect x="654.50" y="56.60" width="10.00" height="133.40" fill="#3976af" opacity=".75"/><rect x="665.00" y="56.07" width="10.00" height="133.93" fill="#3976af" opacity=".75"/><rect x="675.50" y="55.96" width="10.00" height="134.04" fill="#3976af" opacity=".75"/><rect x="686.00" y="55.96" width="10.00" height="134.04" fill="#3976af" opacity=".75"/><rect x="696.50" y="55.63" width="10.00" height="134.37" fill="#3976af" opacity=".75"/><rect x="707.00" y="55.39" width="10.00" height="134.61" fill="#3976af" opacity=".75"/><rect x="717.50" y="55.15" width="10.00" height="134.85" fill="#3976af" opacity=".75"/><rect x="728.00" y="54.71" width="10.00" height="135.29" fill="#3976af" opacity=".75"/><rect x="738.50" y="54.65" width="10.00" height="135.35" fill="#3976af" opacity=".75"/><rect x="749.00" y="54.16" width="10.00" height="135.84" fill="#3976af" opacity=".75"/><rect x="759.50" y="54.03" width="10.00" height="135.97" fill="#3976af" opacity=".75"/><rect x="770.00" y="53.85" width="10.00" height="136.15" fill="#3976af" opacity=".75"/><rect x="780.50" y="53.68" width="10.00" height="136.32" fill="#3976af" opacity=".75"/><rect x="791.00" y="52.77" width="10.00" height="137.23" fill="#3976af" opacity=".75"/><rect x="801.50" y="52.33" width="10.00" height="137.67" fill="#3976af" opacity=".75"/><rect x="812.00" y="51.54" width="10.00" height="138.46" fill="#3976af" opacity=".75"/><rect x="822.50" y="50.94" width="10.00" height="139.06" fill="#3976af" opacity=".75"/><rect x="833.00" y="50.81" width="10.00" height="139.19" fill="#3976af" opacity=".75"/><rect x="843.50" y="50.69" width="10.00" height="139.31" fill="#3976af" opacity=".75"/><rect x="854.00" y="50.16" width="10.00" height="139.84" fill="#3976af" opacity=".75"/><rect x="864.50" y="50.00" width="10.00" height="140.00" fill="#3976af" opacity=".75"/></svg>