<svg xmlns="http://www.w3.org/2000/svg" width="900" height="500" viewBox="0 0 900 500"><rect width="100%" height="100%" fill="white"/><text x="30" y="30" font-family="sans-serif" font-size="18">directional_cross_block_consistency.svg</text><text x="30" y="52" font-family="sans-serif" font-size="12">sign consistency; top 30 frozen relations</text><line x1="50" y1="450" x2="870" y2="450" stroke="#333"/><rect x="55" y="70" width="25" height="380" fill="#4378bf"><title>directional:x000027:x000002: 1.0000 sign consistency</title></rect><rect x="81" y="450" width="25" height="0" fill="#4378bf"><title>directional:x000000:x000003: 0.0000 sign consistency</title></rect><rect x="107" y="450" width="25" height="0" fill="#4378bf"><title>directional:x000000:x000021: 0.0000 sign consistency</title></rect><rect x="133" y="450" width="25" height="0" fill="#4378bf"><title>directional:x000000:x000030: 0.0000 sign consistency</title></rect><rect x="159" y="450" width="25" height="0" fill="#4378bf"><title>directional:x000000:x000048: 0.0000 sign consistency</title></rect><rect x="185" y="450" width="25" height="0" fill="#4378bf"><title>directional:x000000:x000053: 0.0000 sign consistency</title></rect><rect x="211" y="450" width="25" height="0" fill="#4378bf"><title>directional:x000000:x000054: 0.0000 sign consistency</title></rect><rect x="237" y="450" width="25" height="0" fill="#4378bf"><title>directional:x000000:x000074: 0.0000 sign consistency</title></rect><rect x="263" y="450" width="25" height="0" fill="#4378bf"><title>directional:x000000:x000587: 0.0000 sign consistency</title></rect><rect x="289" y="450" width="25" height="0" fill="#4378bf"><title>directional:x000000:x000881: 0.0000 sign consistency</title></rect><rect x="315" y="450" width="25" height="0" fill="#4378bf"><title>directional:x000000:x002784: 0.0000 sign consistency</title></rect><rect x="341" y="450" width="25" height="0" fill="#4378bf"><title>directional:x000001:x000015: 0.0000 sign consistency</title></rect><rect x="367" y="450" width="25" height="0" fill="#4378bf"><title>directional:x000001:x000020: 0.0000 sign consistency</title></rect><rect x="393" y="450" width="25" height="0" fill="#4378bf"><title>directional:x000001:x000076: 0.0000 sign consistency</title></rect><rect x="419" y="450" width="25" height="0" fill="#4378bf"><title>directional:x000002:x000003: 0.0000 sign consistency</title></rect><rect x="445" y="450" width="25" height="0" fill="#4378bf"><title>directional:x000002:x000017: 0.0000 sign consistency</title></rect><rect x="471" y="450" width="25" height="0" fill="#4378bf"><title>directional:x000003:x000001: 0.0000 sign consistency</title></rect><rect x="497" y="450" width="25" height="0" fill="#4378bf"><title>directional:x000003:x000005: 0.0000 sign consistency</title></rect><rect x="523" y="450" width="25" height="0" fill="#4378bf"><title>directional:x000003:x000020: 0.0000 sign consistency</title></rect><rect x="549" y="450" width="25" height="0" fill="#4378bf"><title>directional:x000003:x000881: 0.0000 sign consistency</title></rect><rect x="575" y="450" width="25" height="0" fill="#4378bf"><title>directional:x000004:x000000: 0.0000 sign consistency</title></rect><rect x="601" y="450" width="25" height="0" fill="#4378bf"><title>directional:x000004:x000001: 0.0000 sign consistency</title></rect><rect x="627" y="450" width="25" height="0" fill="#4378bf"><title>directional:x000004:x000010: 0.0000 sign consistency</title></rect><rect x="653" y="450" width="25" height="0" fill="#4378bf"><title>directional:x000004:x000017: 0.0000 sign consistency</title></rect><rect x="679" y="450" width="25" height="0" fill="#4378bf"><title>directional:x000004:x000020: 0.0000 sign consistency</title></rect><rect x="705" y="450" width="25" height="0" fill="#4378bf"><title>directional:x000004:x000022: 0.0000 sign consistency</title></rect><rect x="731" y="450" width="25" height="0" fill="#4378bf"><title>directional:x000004:x000075: 0.0000 sign consistency</title></rect><rect x="757" y="450" width="25" height="0" fill="#4378bf"><title>directional:x000004:x000099: 0.0000 sign consistency</title></rect><rect x="783" y="450" width="25" height="0" fill="#4378bf"><title>directional:x000004:x000105: 0.0000 sign consistency</title></rect><rect x="809" y="450" width="25" height="0" fill="#4378bf"><title>directional:x000004:x000116: 0.0000 sign consistency</title></rect></svg>
