<svg xmlns="http://www.w3.org/2000/svg" width="900" height="500" viewBox="0 0 900 500"><rect width="100%" height="100%" fill="white"/><text x="30" y="30" font-family="sans-serif" font-size="18">structural_pair_cross_block_stability.svg</text><text x="30" y="52" font-family="sans-serif" font-size="12">median within-block structural similarity; top 30 frozen relations</text><line x1="50" y1="450" x2="870" y2="450" stroke="#333"/><rect x="55" y="350" width="25" height="100" fill="#4378bf"><title>structural:x000002:x000005: 0.2644 median within-block structural similarity</title></rect><rect x="81" y="352" width="25" height="98" fill="#4378bf"><title>structural:x000004:x000005: 0.2603 median within-block structural similarity</title></rect><rect x="107" y="354" width="25" height="96" fill="#4378bf"><title>structural:x000002:x000003: 0.2545 median within-block structural similarity</title></rect><rect x="133" y="358" width="25" height="92" fill="#4378bf"><title>structural:x000000:x000002: 0.2431 median within-block structural similarity</title></rect><rect x="159" y="361" width="25" height="89" fill="#4378bf"><title>structural:x000001:x000005: 0.2364 median within-block structural similarity</title></rect><rect x="185" y="372" width="25" height="78" fill="#4378bf"><title>structural:x000001:x000002: 0.2068 median within-block structural similarity</title></rect><rect x="211" y="377" width="25" height="73" fill="#4378bf"><title>structural:x000002:x000004: 0.1939 median within-block structural similarity</title></rect><rect x="237" y="377" width="25" height="73" fill="#4378bf"><title>structural:x000003:x000005: 0.1928 median within-block structural similarity</title></rect><rect x="263" y="378" width="25" height="72" fill="#4378bf"><title>structural:x000009:x000010: 0.1903 median within-block structural similarity</title></rect><rect x="289" y="379" width="25" height="71" fill="#4378bf"><title>structural:x000000:x000001: 0.1869 median within-block structural similarity</title></rect><rect x="315" y="386" width="25" height="64" fill="#4378bf"><title>structural:x000003:x000004: 0.1696 median within-block structural similarity</title></rect><rect x="341" y="398" width="25" height="52" fill="#4378bf"><title>structural:x000001:x000004: 0.1387 median within-block structural similarity</title></rect><rect x="367" y="400" width="25" height="50" fill="#4378bf"><title>structural:x000001:x000003: 0.1325 median within-block structural similarity</title></rect><rect x="393" y="406" width="25" height="44" fill="#4378bf"><title>structural:x000007:x000008: 0.1162 median within-block structural similarity</title></rect><rect x="419" y="450" width="25" height="0" fill="#4378bf"><title>structural:x000051:x000066: 0.0000 median within-block structural similarity</title></rect><rect x="445" y="450" width="25" height="0" fill="#4378bf"><title>structural:x000053:x000068: 0.0000 median within-block structural similarity</title></rect><rect x="471" y="450" width="25" height="0" fill="#4378bf"><title>structural:x000006:x000007: 0.0000 median within-block structural similarity</title></rect><rect x="497" y="450" width="25" height="0" fill="#4378bf"><title>structural:x000006:x000008: 0.0000 median within-block structural similarity</title></rect><rect x="523" y="450" width="25" height="0" fill="#4378bf"><title>structural:x000006:x000009: 0.0000 median within-block structural similarity</title></rect><rect x="549" y="450" width="25" height="0" fill="#4378bf"><title>structural:x000006:x000010: 0.0000 median within-block structural similarity</title></rect><rect x="575" y="450" width="25" height="0" fill="#4378bf"><title>structural:x000000:x000003: 0.0000 median within-block structural similarity</title></rect><rect x="601" y="450" width="25" height="0" fill="#4378bf"><title>structural:x000007:x000010: 0.0000 median within-block structural similarity</title></rect><rect x="627" y="450" width="25" height="0" fill="#4378bf"><title>structural:x000008:x000009: 0.0000 median within-block structural similarity</title></rect><rect x="653" y="450" width="25" height="0" fill="#4378bf"><title>structural:x000008:x000010: 0.0000 median within-block structural similarity</title></rect><rect x="679" y="450" width="25" height="0" fill="#4378bf"><title>structural:qokedy:qokeedy: 0.0000 median within-block structural similarity</title></rect><rect x="705" y="450" width="25" height="0" fill="#4378bf"><title>structural:x000016:x000017: 0.0000 median within-block structural similarity</title></rect><rect x="731" y="450" width="25" height="0" fill="#4378bf"><title>structural:x000016:x000018: 0.0000 median within-block structural similarity</title></rect><rect x="757" y="450" width="25" height="0" fill="#4378bf"><title>structural:x000016:x000019: 0.0000 median within-block structural similarity</title></rect><rect x="783" y="450" width="25" height="0" fill="#4378bf"><title>structural:x000016:x000020: 0.0000 median within-block structural similarity</title></rect><rect x="809" y="450" width="25" height="0" fill="#4378bf"><title>structural:x000016:x000036: 0.0000 median within-block structural similarity</title></rect></svg>
