<svg xmlns="http://www.w3.org/2000/svg" width="900" height="360" viewBox="0 0 900 360"><rect width="100%" height="100%" fill="white"/><text x="30" y="28" font-family="sans-serif" font-size="18">incoming entropy effect</text><line x1="30" y1="190" x2="880" y2="190" stroke="#888"/><rect x="35.00" y="92.46" width="12.23" height="97.54" fill="#3976af" opacity=".75"/><rect x="47.73" y="86.75" width="12.23" height="103.25" fill="#3976af" opacity=".75"/><rect x="60.45" y="84.95" width="12.23" height="105.05" fill="#3976af" opacity=".75"/><rect x="73.18" y="83.68" width="12.23" height="106.32" fill="#3976af" opacity=".75"/><rect x="85.91" y="83.26" width="12.23" height="106.74" fill="#3976af" opacity=".75"/><rect x="98.64" y="82.34" width="12.23" height="107.66" fill="#3976af" opacity=".75"/><rect x="111.36" y="81.76" width="12.23" height="108.24" fill="#3976af" opacity=".75"/><rect x="124.09" y="81.25" width="12.23" height="108.75" fill="#3976af" opacity=".75"/><rect x="136.82" y="81.06" width="12.23" height="108.94" fill="#3976af" opacity=".75"/><rect x="149.55" y="80.71" width="12.23" height="109.29" fill="#3976af" opacity=".75"/><rect x="162.27" y="80.71" width="12.23" height="109.29" fill="#3976af" opacity=".75"/><rect x="175.00" y="80.69" width="12.23" height="109.31" fill="#3976af" opacity=".75"/><rect x="187.73" y="80.43" width="12.23" height="109.57" fill="#3976af" opacity=".75"/><rect x="200.45" y="79.75" width="12.23" height="110.25" fill="#3976af" opacity=".75"/><rect x="213.18" y="79.04" width="12.23" height="110.96" fill="#3976af" opacity=".75"/><rect x="225.91" y="78.51" width="12.23" height="111.49" fill="#3976af" opacity=".75"/><rect x="238.64" y="78.41" width="12.23" height="111.59" fill="#3976af" opacity=".75"/><rect x="251.36" y="77.18" width="12.23" height="112.82" fill="#3976af" opacity=".75"/><rect x="264.09" y="77.16" width="12.23" height="112.84" fill="#3976af" opacity=".75"/><rect x="276.82" y="77.16" width="12.23" height="112.84" fill="#3976af" opacity=".75"/><rect x="289.55" y="77.14" width="12.23" height="112.86" fill="#3976af" opacity=".75"/><rect x="302.27" y="77.13" width="12.23" height="112.87" fill="#3976af" opacity=".75"/><rect x="315.00" y="76.26" width="12.23" height="113.74" fill="#3976af" opacity=".75"/><rect x="327.73" y="75.88" width="12.23" height="114.12" fill="#3976af" opacity=".75"/><rect x="340.45" y="75.47" width="12.23" height="114.53" fill="#3976af" opacity=".75"/><rect x="353.18" y="75.47" width="12.23" height="114.53" fill="#3976af" opacity=".75"/><rect x="365.91" y="75.40" width="12.23" height="114.60" fill="#3976af" opacity=".75"/><rect x="378.64" y="75.31" width="12.23" height="114.69" fill="#3976af" opacity=".75"/><rect x="391.36" y="75.00" width="12.23" height="115.00" fill="#3976af" opacity=".75"/><rect x="404.09" y="74.81" width="12.23" height="115.19" fill="#3976af" opacity=".75"/><rect x="416.82" y="74.15" width="12.23" height="115.85" fill="#3976af" opacity=".75"/><rect x="429.55" y="73.54" width="12.23" height="116.46" fill="#3976af" opacity=".75"/><rect x="442.27" y="73.03" width="12.23" height="116.97" fill="#3976af" opacity=".75"/><rect x="455.00" y="72.80" width="12.23" height="117.20" fill="#3976af" opacity=".75"/><rect x="467.73" y="72.47" width="12.23" height="117.53" fill="#3976af" opacity=".75"/><rect x="480.45" y="72.47" width="12.23" height="117.53" fill="#3976af" opacity=".75"/><rect x="493.18" y="71.63" width="12.23" height="118.37" fill="#3976af" opacity=".75"/><rect x="505.91" y="71.60" width="12.23" height="118.40" fill="#3976af" opacity=".75"/><rect x="518.64" y="70.78" width="12.23" height="119.22" fill="#3976af" opacity=".75"/><rect x="531.36" y="70.40" width="12.23" height="119.60" fill="#3976af" opacity=".75"/><rect x="544.09" y="69.64" width="12.23" height="120.36" fill="#3976af" opacity=".75"/><rect x="556.82" y="68.86" width="12.23" height="121.14" fill="#3976af" opacity=".75"/><rect x="569.55" y="68.59" width="12.23" height="121.41" fill="#3976af" opacity=".75"/><rect x="582.27" y="68.14" width="12.23" height="121.86" fill="#3976af" opacity=".75"/><rect x="595.00" y="67.98" width="12.23" height="122.02" fill="#3976af" opacity=".75"/><rect x="607.73" y="67.94" width="12.23" height="122.06" fill="#3976af" opacity=".75"/><rect x="620.45" y="67.63" width="12.23" height="122.37" fill="#3976af" opacity=".75"/><rect x="633.18" y="67.61" width="12.23" height="122.39" fill="#3976af" opacity=".75"/><rect x="645.91" y="67.06" width="12.23" height="122.94" fill="#3976af" opacity=".75"/><rect x="658.64" y="66.56" width="12.23" height="123.44" fill="#3976af" opacity=".75"/><rect x="671.36" y="66.12" width="12.23" height="123.88" fill="#3976af" opacity=".75"/><rect x="684.09" y="65.58" width="12.23" height="124.42" fill="#3976af" opacity=".75"/><rect x="696.82" y="64.57" width="12.23" height="125.43" fill="#3976af" opacity=".75"/><rect x="709.55" y="63.50" width="12.23" height="126.50" fill="#3976af" opacity=".75"/><rect x="722.27" y="60.81" width="12.23" height="129.19" fill="#3976af" opacity=".75"/><rect x="735.00" y="60.40" width="12.23" height="129.60" fill="#3976af" opacity=".75"/><rect x="747.73" y="60.23" width="12.23" height="129.77" fill="#3976af" opacity=".75"/><rect x="760.45" y="59.93" width="12.23" height="130.07" fill="#3976af" opacity=".75"/><rect x="773.18" y="59.77" width="12.23" height="130.23" fill="#3976af" opacity=".75"/><rect x="785.91" y="59.41" width="12.23" height="130.59" fill="#3976af" opacity=".75"/><rect x="798.64" y="58.71" width="12.23" height="131.29" fill="#3976af" opacity=".75"/><rect x="811.36" y="58.25" width="12.23" height="131.75" fill="#3976af" opacity=".75"/><rect x="824.09" y="55.87" width="12.23" height="134.13" fill="#3976af" opacity=".75"/><rect x="836.82" y="52.74" width="12.23" height="137.26" fill="#3976af" opacity=".75"/><rect x="849.55" y="52.18" width="12.23" height="137.82" fill="#3976af" opacity=".75"/><rect x="862.27" y="50.00" width="12.23" height="140.00" fill="#3976af" opacity=".75"/></svg>