<svg xmlns="http://www.w3.org/2000/svg" width="840" height="500" viewBox="0 0 840 500"><rect width="100%" height="100%" fill="white"/><style>text{font:12px sans-serif}.title{font:bold 16px sans-serif}.grid{stroke:#ddd}.target{stroke:#1769aa;fill:none;stroke-width:3}.median{stroke:#555;fill:none;stroke-dasharray:5 4}.p95{stroke:#d95f02;fill:none;stroke-dasharray:7 4}.control{stroke:#2ca02c;fill:none;stroke-dasharray:2 4}</style><text class="title" x="20" y="25">x004718 / x010055 — right context-similarity profile</text><line class="grid" x1="65" y1="435.0" x2="795" y2="435.0"/><text x="25" y="439.0">0.0</text><line class="grid" x1="65" y1="357.0" x2="795" y2="357.0"/><text x="25" y="361.0">0.2</text><line class="grid" x1="65" y1="279.0" x2="795" y2="279.0"/><text x="25" y="283.0">0.4</text><line class="grid" x1="65" y1="201.0" x2="795" y2="201.0"/><text x="25" y="205.0">0.6</text><line class="grid" x1="65" y1="123.0" x2="795" y2="123.0"/><text x="25" y="127.0">0.8</text><line class="grid" x1="65" y1="45.0" x2="795" y2="45.0"/><text x="25" y="49.0">1.0</text><polyline class="target" points="65.0,178.3 103.4,390.4 141.8,293.3 180.3,291.3 218.7,342.5 257.1,321.8 295.5,320.5 333.9,304.8 372.4,312.4 410.8,328.9 449.2,326.7 487.6,314.2 526.1,330.9 564.5,322.2 602.9,338.3 641.3,305.6 679.7,333.1 718.2,327.8 756.6,312.9 795.0,312.6 "/><polyline class="median" points="65.0,406.2 103.4,375.7 141.8,371.4 180.3,368.0 218.7,369.2 257.1,367.2 295.5,367.5 333.9,370.3 372.4,365.6 410.8,369.4 449.2,365.1 487.6,368.1 526.1,370.0 564.5,367.8 602.9,366.9 641.3,366.0 679.7,369.2 718.2,367.8 756.6,369.6 795.0,371.0 "/><polyline class="p95" points="65.0,306.2 103.4,324.2 141.8,311.7 180.3,308.4 218.7,305.0 257.1,309.0 295.5,308.4 333.9,305.1 372.4,306.8 410.8,305.4 449.2,306.1 487.6,303.8 526.1,309.1 564.5,309.4 602.9,305.9 641.3,305.2 679.7,306.3 718.2,303.4 756.6,305.3 795.0,309.2 "/><polyline class="control" points="65.0,430.6 103.4,349.5 141.8,327.0 180.3,318.9 218.7,339.0 257.1,346.3 295.5,321.7 333.9,331.4 372.4,322.9 410.8,309.2 449.2,333.9 487.6,325.4 526.1,318.6 564.5,325.3 602.9,326.0 641.3,323.7 679.7,344.5 718.2,326.8 756.6,328.1 795.0,345.3 "/><text x="65.0" y="455" text-anchor="middle">1</text><text x="103.4" y="455" text-anchor="middle">2</text><text x="141.8" y="455" text-anchor="middle">3</text><text x="218.7" y="455" text-anchor="middle">5</text><text x="410.8" y="455" text-anchor="middle">10</text><text x="795.0" y="455" text-anchor="middle">20</text><text x="680" y="58" fill="#1769aa">target</text><text x="680" y="75">baseline median</text><text x="680" y="92" fill="#d95f02">baseline P95</text><text x="680" y="109" fill="#2ca02c">control median</text><text x="400" y="482">exact token distance</text></svg>