<svg xmlns="http://www.w3.org/2000/svg" width="900" height="480" viewBox="0 0 900 480"><rect width="100%" height="100%" fill="white"/><text x="450" y="24" text-anchor="middle" font-family="sans-serif" font-size="16">Silhouette sweep (window 200)</text><path d="M60 40V430H870" fill="none" stroke="#333"/><polyline fill="none" stroke="#2563eb" stroke-width="2" points="60.0,237.1 122.3,243.4 184.6,244.9 246.9,244.8 309.2,244.6 371.5,244.7 433.8,244.5 496.2,244.2 558.5,243.9 620.8,243.1 683.1,242.4 745.4,241.7 807.7,241.1 870.0,240.4 "/><text x="70" y="60" font-family="sans-serif" font-size="12" fill="#2563eb">hierarchical</text><polyline fill="none" stroke="#059669" stroke-width="2" points="60.0,248.7 122.3,249.0 184.6,249.1 246.9,249.7 309.2,249.2 371.5,248.4 433.8,248.9 496.2,248.0 558.5,248.9 620.8,249.8 683.1,249.7 745.4,248.4 807.7,248.2 870.0,246.8 "/><text x="300" y="60" font-family="sans-serif" font-size="12" fill="#059669">k_medoids</text><polyline fill="none" stroke="#dc2626" stroke-width="2" points="60.0,250.5 122.3,251.4 184.6,251.9 246.9,255.6 309.2,255.6 371.5,255.5 433.8,255.4 496.2,255.3 558.5,255.3 620.8,255.5 683.1,255.7 745.4,254.8 807.7,254.7 870.0,254.7 "/><text x="530" y="60" font-family="sans-serif" font-size="12" fill="#dc2626">contiguous_segmentation</text></svg>