<svg xmlns="http://www.w3.org/2000/svg" width="900" height="500" viewBox="0 0 900 500"><rect width="100%" height="100%" fill="white"/><text x="30" y="30" font-family="sans-serif" font-size="18">directional_cross_block_consistency.svg</text><text x="30" y="52" font-family="sans-serif" font-size="12">sign consistency; top 30 frozen relations</text><line x1="50" y1="450" x2="870" y2="450" stroke="#333"/><rect x="55" y="70" width="25" height="380" fill="#4378bf"><title>directional:x012696:x018928: 1.0000 sign consistency</title></rect><rect x="81" y="70" width="25" height="380" fill="#4378bf"><title>directional:x009439:x018929: 1.0000 sign consistency</title></rect><rect x="107" y="70" width="25" height="380" fill="#4378bf"><title>directional:x019271:x018929: 1.0000 sign consistency</title></rect><rect x="133" y="70" width="25" height="380" fill="#4378bf"><title>directional:x019270:x018930: 1.0000 sign consistency</title></rect><rect x="159" y="70" width="25" height="380" fill="#4378bf"><title>directional:x019270:x018929: 1.0000 sign consistency</title></rect><rect x="185" y="70" width="25" height="380" fill="#4378bf"><title>directional:x000714:x018928: 1.0000 sign consistency</title></rect><rect x="211" y="70" width="25" height="380" fill="#4378bf"><title>directional:x019268:x018928: 1.0000 sign consistency</title></rect><rect x="237" y="70" width="25" height="380" fill="#4378bf"><title>directional:x018931:x018929: 1.0000 sign consistency</title></rect><rect x="263" y="70" width="25" height="380" fill="#4378bf"><title>directional:x000714:x018929: 1.0000 sign consistency</title></rect><rect x="289" y="70" width="25" height="380" fill="#4378bf"><title>directional:x018931:x000713: 1.0000 sign consistency</title></rect><rect x="315" y="70" width="25" height="380" fill="#4378bf"><title>directional:x018930:x018929: 1.0000 sign consistency</title></rect><rect x="341" y="70" width="25" height="380" fill="#4378bf"><title>directional:x018930:x018928: 1.0000 sign consistency</title></rect><rect x="367" y="70" width="25" height="380" fill="#4378bf"><title>directional:x018930:x012696: 1.0000 sign consistency</title></rect><rect x="393" y="70" width="25" height="380" fill="#4378bf"><title>directional:x000715:x018929: 1.0000 sign consistency</title></rect><rect x="419" y="70" width="25" height="380" fill="#4378bf"><title>directional:x018928:x012696: 1.0000 sign consistency</title></rect><rect x="445" y="70" width="25" height="380" fill="#4378bf"><title>directional:x009248:x018929: 1.0000 sign consistency</title></rect><rect x="471" y="70" width="25" height="380" fill="#4378bf"><title>directional:x012699:x018929: 1.0000 sign consistency</title></rect><rect x="497" y="70" width="25" height="380" fill="#4378bf"><title>directional:x012699:x000055: 1.0000 sign consistency</title></rect><rect x="523" y="70" width="25" height="380" fill="#4378bf"><title>directional:x020558:x000713: 1.0000 sign consistency</title></rect><rect x="549" y="70" width="25" height="380" fill="#4378bf"><title>directional:x009250:x018930: 1.0000 sign consistency</title></rect><rect x="575" y="70" width="25" height="380" fill="#4378bf"><title>directional:x019269:x018930: 1.0000 sign consistency</title></rect><rect x="601" y="70" width="25" height="380" fill="#4378bf"><title>directional:x012698:x018928: 1.0000 sign consistency</title></rect><rect x="627" y="70" width="25" height="380" fill="#4378bf"><title>directional:x009250:x018931: 1.0000 sign consistency</title></rect><rect x="653" y="70" width="25" height="380" fill="#4378bf"><title>directional:x000055:x012699: 1.0000 sign consistency</title></rect><rect x="679" y="70" width="25" height="380" fill="#4378bf"><title>directional:x012697:x018930: 1.0000 sign consistency</title></rect><rect x="705" y="70" width="25" height="380" fill="#4378bf"><title>directional:x012696:x018930: 1.0000 sign consistency</title></rect><rect x="731" y="70" width="25" height="380" fill="#4378bf"><title>directional:x009251:x019270: 1.0000 sign consistency</title></rect><rect x="757" y="70" width="25" height="380" fill="#4378bf"><title>directional:x000712:x018931: 1.0000 sign consistency</title></rect><rect x="783" y="70" width="25" height="380" fill="#4378bf"><title>directional:x009439:x018928: 1.0000 sign consistency</title></rect><rect x="809" y="165" width="25" height="285" fill="#4378bf"><title>directional:x018929:x018928: 0.7500 sign consistency</title></rect></svg>
